HIERARCHY
ROOT Hips
{
	OFFSET 0.00 0.00 0.00
	CHANNELS 6 Xposition Yposition Zposition Xrotation Yrotation Zrotation
	JOINT Spine
	{
		OFFSET 0.00000 5.19526 0.00000
		CHANNELS 3 Xrotation Yrotation Zrotation
		JOINT Head
		{
			OFFSET 0.00000 15.65388 0.00000
			CHANNELS 3 Xrotation Yrotation Zrotation
			End Site
			{
				OFFSET 0.00000 4.52755 0.00000
			}
		}
		JOINT LeftShoulder
		{
			OFFSET 0.00000 10.32977 0.00000
			CHANNELS 3 Xrotation Yrotation Zrotation
			JOINT LeftArm
			{
				OFFSET 6.99601 0.00000 0.00000
				CHANNELS 3 Xrotation Yrotation Zrotation
				JOINT LeftForeArm
				{
					OFFSET 10.20930 0.00000 0.00000
					CHANNELS 3 Yrotation Zrotation Xrotation
					JOINT LeftHand
					{
						OFFSET 8.56316 0.00000 0.00000
						CHANNELS 3 Xrotation Yrotation Zrotation
						JOINT LeftHandThumb1
						{
							OFFSET 0.00000 0.00000 0.00000
							CHANNELS 3 Xrotation Zrotation Yrotation
							End Site
							{
								OFFSET 0.00000 0.00000 3.93700
							}
						}
						End Site
						{
							OFFSET 3.93700 0.00000 0.00000
						}
					}
				}
			}
		}
		JOINT RightShoulder
		{
			OFFSET 0.00000 10.32977 0.00000
			CHANNELS 3 Xrotation Yrotation Zrotation
			JOINT RightArm
			{
				OFFSET -6.99601 0.00000 0.00000
				CHANNELS 3 Xrotation Yrotation Zrotation
				JOINT RightForeArm
				{
					OFFSET -10.20930 0.00000 0.00000
					CHANNELS 3 Yrotation Zrotation Xrotation
					JOINT RightHand
					{
						OFFSET -8.56316 0.00000 0.00000
						CHANNELS 3 Xrotation Yrotation Zrotation
						JOINT RightHandThumb1
						{
							OFFSET 0.00000 0.00000 0.00000
							CHANNELS 3 Xrotation Zrotation Yrotation
							End Site
							{
								OFFSET 0.00000 0.00000 3.93700
							}
						}
						End Site
						{
							OFFSET -3.93700 0.00000 0.00000
						}
					}
				}
			}
		}
	}
	JOINT LeftUpLeg
	{
		OFFSET 3.35136 0.00000 0.00000
		CHANNELS 3 Xrotation Yrotation Zrotation
		JOINT LeftLeg
		{
			OFFSET 0.00000 -16.34683 0.00000
			CHANNELS 3 Xrotation Yrotation Zrotation
			JOINT LeftFoot
			{
				OFFSET 0.00000 -13.95979 0.00000
				CHANNELS 3 Xrotation Yrotation Zrotation
				JOINT LeftToeBase
				{
					OFFSET 0.00000 -1.33694 4.98954
					CHANNELS 3 Xrotation Yrotation Zrotation
					End Site
					{
						OFFSET 0.00000 0.00000 2.95275
					}
				}
			}
		}
	}
	JOINT RightUpLeg
	{
		OFFSET -3.35136 0.00000 0.00000
		CHANNELS 3 Xrotation Yrotation Zrotation
		JOINT RightLeg
		{
			OFFSET 0.00000 -16.34683 0.00000
			CHANNELS 3 Xrotation Yrotation Zrotation
			JOINT RightFoot
			{
				OFFSET 0.00000 -13.95979 0.00000
				CHANNELS 3 Xrotation Yrotation Zrotation
				JOINT RightToeBase
				{
					OFFSET 0.00000 -1.33694 4.98954
					CHANNELS 3 Xrotation Yrotation Zrotation
					End Site
					{
						OFFSET 0.00000 0.00000 2.95275
					}
				}
			}
		}
	}
}
MOTION
Frames: 19
Frame Time: 0.008333
 -1.9432 31.8390 -6.6018 6.0176 4.9790 3.1416 -5.7184 -6.1729 -1.7956 1.9285 9.6821 -1.3545 6.5129 24.0064 24.7128 -26.6409 -9.6117 -24.7264 -0.4046 0.0000 3.0736 2.7393 12.6574 -12.3177 33.1476 -0.0000 26.2537 -14.2985 -5.9701 -36.4236 -23.8410 2.8471 32.5758 7.8314 -0.0000 24.9146 4.0094 -14.0128 16.1441 32.8623 0.0000 -24.3270 -1.8588 0.6274 -0.6899 0.9806 0.0000 0.0000 -10.6236 26.9500 -13.6939 8.7533 -0.0000 0.0000 0.8808 -5.3565 -5.5749 -4.1917 -0.0000 -0.0000 -12.7742 -16.3183 2.7019 4.1685 -0.0000 0.0000
 -1.9457 31.8389 -6.6000 6.0109 4.9831 3.1364 -5.7175 -6.1778 -1.7990 1.9467 9.6953 -1.3558 6.5200 24.0124 24.7199 -26.6515 -9.6263 -24.7287 -0.4163 0.0000 3.0619 2.7555 12.7130 -12.3367 33.1476 -0.0000 26.2537 -14.2925 -5.9715 -36.4231 -23.8466 2.8447 32.5761 7.8264 -0.0000 24.9190 4.0045 -13.9885 16.1513 32.8623 0.0000 -24.3270 -1.8517 0.6279 -0.6800 0.9810 0.0000 0.0000 -10.6321 26.9560 -13.6679 8.7490 -0.0000 0.0000 0.8804 -5.3825 -5.5627 -4.1695 0.0000 -0.0000 -12.8288 -16.2950 2.5595 4.2498 -0.0000 0.0000
 -1.9488 31.8389 -6.5981 6.0083 4.9802 3.1347 -5.7241 -6.1766 -1.8063 1.9730 9.6841 -1.3582 6.5007 23.9936 24.7248 -26.6409 -9.6354 -24.7120 -0.4122 0.0000 3.0640 2.7778 12.7058 -12.4402 33.1476 -0.0000 26.2537 -14.3062 -5.9477 -36.4121 -23.8036 2.8779 32.5584 7.7994 -0.0000 24.8301 4.0443 -14.0976 16.1869 32.8623 0.0000 -24.3270 -1.8438 0.6171 -0.6720 0.9793 0.0000 -0.0000 -10.6221 26.9663 -13.6906 8.7428 0.0000 0.0000 0.8929 -5.3584 -5.5540 -4.1747 -0.0000 -0.0000 -12.8068 -16.2634 2.4699 4.1203 0.0000 -0.0000
 -1.9514 31.8389 -6.5968 6.0074 4.9919 3.1290 -5.7269 -6.1870 -1.8079 1.9670 9.6696 -1.3334 6.5066 23.9920 24.7222 -26.6146 -9.6493 -24.6930 -0.4550 0.0000 2.9892 2.7641 12.6894 -12.3959 33.1476 -0.0000 26.2537 -14.3044 -5.9650 -36.4134 -23.8389 2.8723 32.5656 7.8095 -0.0000 24.8554 4.0530 -14.1129 16.2035 32.8623 0.0000 -24.3270 -1.8470 0.6183 -0.6664 0.9937 -0.0000 -0.0000 -10.6376 26.9988 -13.7665 8.7983 -0.0000 -0.0000 0.9039 -5.3390 -5.5456 -4.1840 0.0000 0.0000 -12.8308 -16.3291 2.5432 4.3010 -0.0000 -0.0000
 -1.9537 31.8386 -6.5956 6.0040 5.0003 3.1233 -5.7291 -6.1961 -1.8104 1.9778 9.6675 -1.3235 6.4720 23.9711 24.7328 -26.6220 -9.6464 -24.6848 -0.4540 0.0000 2.9908 2.7691 12.7133 -12.3956 33.1476 -0.0000 26.2537 -14.2980 -5.9737 -36.4177 -23.8457 2.8768 32.5735 7.7906 -0.0000 24.8867 4.0338 -14.0864 16.1587 32.8623 0.0000 -24.3270 -1.8398 0.6003 -0.6514 0.9820 -0.0000 -0.0000 -10.6314 26.9603 -13.6934 8.7095 0.0000 -0.0000 0.8954 -5.3806 -5.5321 -4.1565 -0.0000 0.0000 -12.8277 -16.2661 2.4710 4.1575 0.0000 -0.0000
 -1.9559 31.8384 -6.5937 6.0031 5.0025 3.1231 -5.7358 -6.1892 -1.8203 1.9935 9.6643 -1.3097 6.4943 23.9809 24.7271 -26.6986 -9.6517 -24.6912 -0.4511 0.0000 3.0230 2.7619 12.6994 -12.3768 33.1476 -0.0000 26.2537 -14.2901 -5.9908 -36.4136 -23.8258 2.8951 32.5659 7.7952 -0.0000 24.8493 4.0382 -14.1219 16.1376 32.8623 0.0000 -24.3270 -1.8352 0.5918 -0.6475 0.9788 0.0000 -0.0000 -10.6345 26.9687 -13.6948 8.7851 -0.0000 0.0000 0.8713 -5.4604 -5.5268 -4.1164 -0.0000 -0.0000 -12.8663 -16.2227 2.5277 4.2422 0.0000 -0.0000
 -1.9584 31.8381 -6.5915 6.0017 5.0110 3.1200 -5.7394 -6.1879 -1.8259 1.9962 9.6536 -1.3057 6.5103 23.9841 24.7115 -26.7403 -9.6655 -24.6774 -0.4584 0.0000 3.0205 2.7665 12.6866 -12.4090 33.1476 -0.0000 26.2537 -14.3086 -5.9903 -36.4240 -23.8411 2.8570 32.5691 7.8103 -0.0000 24.9515 4.0538 -14.1137 16.2058 32.8623 0.0000 -24.3270 -1.8303 0.5974 -0.6398 0.9777 0.0000 0.0000 -10.6331 26.9542 -13.6813 8.7265 -0.0000 0.0000 0.8771 -5.4649 -5.5170 -4.1111 0.0000 0.0000 -12.8625 -16.1899 2.4701 4.1499 0.0000 0.0000
 -1.9610 31.8378 -6.5897 5.9975 5.0225 3.1169 -5.7468 -6.2066 -1.8310 2.0256 9.6711 -1.3325 6.6245 24.0425 24.6482 -26.8330 -9.7109 -24.6482 -0.4523 0.0000 2.9840 2.7757 12.6977 -12.4385 33.1476 -0.0000 26.2537 -14.2969 -5.9863 -36.4257 -23.8076 2.8767 32.5689 7.7997 -0.0000 24.8635 4.0437 -14.1585 16.1196 32.8623 0.0000 -24.3270 -1.8255 0.5898 -0.6360 0.9849 -0.0000 0.0000 -10.6410 26.9927 -13.7662 8.7868 0.0000 -0.0000 0.8927 -5.4602 -5.5095 -4.1240 0.0000 0.0000 -12.8818 -16.2524 2.5291 4.2567 0.0000 0.0000
 -1.9649 31.8373 -6.5875 5.9922 5.0323 3.1114 -5.7467 -6.2045 -1.8402 2.0340 9.6549 -1.3215 6.6309 24.0517 24.6646 -26.8409 -9.7395 -24.6613 -0.4536 0.0000 2.9529 2.7775 12.6977 -12.4464 33.1476 -0.0000 26.2537 -14.2981 -6.0038 -36.4208 -23.8277 2.8622 32.5559 7.8051 -0.0000 24.9108 4.0726 -14.1654 16.2222 32.8623 0.0000 -24.3270 -1.8199 0.5798 -0.6178 0.9824 0.0000 0.0000 -10.6353 26.9461 -13.6925 8.7438 -0.0000 -0.0000 0.9083 -5.4370 -5.4949 -4.1281 0.0000 0.0000 -12.8910 -16.2861 2.4999 4.2549 0.0000 -0.0000
 -1.9668 31.8369 -6.5857 5.9887 5.0396 3.1069 -5.7505 -6.2118 -1.8396 2.0341 9.6394 -1.3152 6.6126 24.0277 24.6566 -26.8846 -9.7000 -24.6472 -0.4720 0.0000 2.9946 2.7890 12.7356 -12.4609 33.1476 -0.0000 26.2537 -14.2949 -6.0066 -36.4231 -23.8109 2.8596 32.5507 7.8193 -0.0000 24.9561 4.0654 -14.1667 16.1934 32.8623 0.0000 -24.3270 -1.8114 0.5827 -0.6106 0.9737 0.0000 -0.0000 -10.6354 26.9376 -13.6756 8.7545 -0.0000 0.0000 0.9164 -5.4425 -5.4873 -4.1268 -0.0000 0.0000 -12.8996 -16.2812 2.4967 4.2753 0.0000 0.0000
 -1.9691 31.8366 -6.5839 5.9868 5.0500 3.1068 -5.7540 -6.2255 -1.8470 2.0377 9.6515 -1.3166 6.6161 24.0309 24.6536 -26.8804 -9.7082 -24.6414 -0.4731 0.0000 2.9710 2.7848 12.7241 -12.4534 33.1476 -0.0000 26.2537 -14.2936 -6.0212 -36.4216 -23.8296 2.8607 32.5487 7.8163 -0.0000 24.9870 4.0566 -14.1524 16.1752 32.8623 0.0000 -24.3270 -1.8060 0.5568 -0.6132 0.9745 0.0000 0.0000 -10.6477 26.9979 -13.7186 8.7760 -0.0000 -0.0000 0.9247 -5.4302 -5.4833 -4.1274 0.0000 0.0000 -12.9042 -16.2970 2.4931 4.2842 -0.0000 -0.0000
 -1.9731 31.8364 -6.5822 5.9797 5.0548 3.0977 -5.7460 -6.2350 -1.8522 2.0153 9.6514 -1.2917 6.6074 24.0420 24.6627 -26.8964 -9.7111 -24.6461 -0.4748 0.0000 2.9558 2.7805 12.7262 -12.4328 33.1476 -0.0000 26.2537 -14.2880 -6.0334 -36.4098 -23.8580 2.8280 32.5439 7.8537 -0.0000 25.0072 4.0799 -14.2052 16.2074 32.8623 0.0000 -24.3270 -1.7992 0.5401 -0.5904 0.9726 -0.0000 -0.0000 -10.6431 26.9717 -13.6906 8.7458 -0.0000 0.0000 0.9423 -5.4185 -5.4644 -4.1366 -0.0000 0.0000 -12.8991 -16.3211 2.4859 4.2480 0.0000 -0.0000
 -1.9757 31.8361 -6.5804 5.9731 5.0606 3.0937 -5.7436 -6.2453 -1.8565 2.0205 9.6590 -1.2932 6.4913 23.9944 24.7352 -26.7711 -9.6912 -24.6715 -0.4959 0.0000 2.9223 2.7803 12.7398 -12.4195 33.1476 -0.0000 26.2537 -14.2979 -6.0219 -36.4067 -23.8297 2.8180 32.5353 7.8583 -0.0000 24.9827 4.0649 -14.2087 16.1470 32.8623 0.0000 -24.3270 -1.7899 0.5342 -0.5799 0.9714 0.0000 -0.0000 -10.6561 26.9628 -13.6733 8.7995 -0.0000 -0.0000 0.9536 -5.4023 -5.4544 -4.1288 0.0000 -0.0000 -12.8944 -16.2957 2.4115 4.1599 -0.0000 0.0000
 -1.9789 31.8359 -6.5787 5.9704 5.0616 3.0892 -5.7463 -6.2486 -1.8603 2.0205 9.6719 -1.3004 6.4862 23.9930 24.7402 -26.7787 -9.6792 -24.6729 -0.5079 0.0000 2.9252 2.7944 12.7598 -12.4618 33.1476 -0.0000 26.2537 -14.2846 -6.0381 -36.4098 -23.8521 2.7947 32.5389 7.8790 -0.0000 25.0203 4.0634 -14.1844 16.1670 32.8623 0.0000 -24.3270 -1.7845 0.5281 -0.5687 0.9715 -0.0000 0.0000 -10.6506 26.9669 -13.6885 8.7762 0.0000 0.0000 0.9669 -5.3795 -5.4459 -4.1399 -0.0000 0.0000 -12.9145 -16.3560 2.4576 4.2537 -0.0000 0.0000
 -1.9823 31.8358 -6.5767 5.9600 5.0564 3.0845 -5.7372 -6.2390 -1.8651 2.0224 9.6838 -1.3126 6.4895 23.9990 24.7390 -26.7839 -9.6981 -24.6708 -0.4990 0.0000 2.9256 2.8008 12.7752 -12.4752 33.1476 -0.0000 26.2537 -14.2759 -6.0591 -36.4047 -23.8630 2.7831 32.5400 7.8793 -0.0000 24.9445 4.0395 -14.2001 16.0601 32.8623 0.0000 -24.3270 -1.7703 0.5384 -0.5581 0.9692 0.0000 -0.0000 -10.6521 26.9632 -13.6605 8.7397 -0.0000 -0.0000 0.9848 -5.3526 -5.4310 -4.1415 -0.0000 0.0000 -12.8908 -16.3411 2.3948 4.1425 -0.0000 -0.0000
 -1.9849 31.8356 -6.5760 5.9581 5.0634 3.0805 -5.7333 -6.2412 -1.8696 1.9979 9.6634 -1.2875 6.4758 24.0021 24.7499 -26.7885 -9.7137 -24.6836 -0.4678 0.0000 2.9069 2.7871 12.7225 -12.4648 33.1476 -0.0000 26.2537 -14.2947 -6.0667 -36.4043 -23.8772 2.7617 32.5334 7.8689 -0.0000 25.0333 4.0390 -14.1226 16.1400 32.8623 0.0000 -24.3270 -1.7703 0.5119 -0.5492 0.9750 0.0000 0.0000 -10.6581 26.9730 -13.6569 8.7684 -0.0000 -0.0000 0.9869 -5.3587 -5.4208 -4.1382 -0.0000 0.0000 -12.9026 -16.3474 2.3658 4.1770 -0.0000 0.0000
 -1.9873 31.8353 -6.5747 5.9522 5.0566 3.0794 -5.7290 -6.2473 -1.8707 1.9924 9.6798 -1.2972 6.4734 24.0033 24.7555 -26.7247 -9.7237 -24.6767 -0.4617 0.0000 2.8703 2.7913 12.6991 -12.5050 33.1476 -0.0000 26.2537 -14.2858 -6.0545 -36.4039 -23.8545 2.7474 32.5175 7.8826 -0.0000 25.0328 4.0552 -14.1295 16.1941 32.8623 0.0000 -24.3270 -1.7610 0.5081 -0.5430 0.9734 0.0000 -0.0000 -10.6570 26.9909 -13.6662 8.7486 0.0000 0.0000 0.9907 -5.3498 -5.4165 -4.1303 -0.0000 -0.0000 -12.8696 -16.3456 2.4861 4.0128 -0.0000 0.0000
 -1.9908 31.8353 -6.5733 5.9450 5.0491 3.0726 -5.7206 -6.2481 -1.8685 1.9810 9.6947 -1.3111 6.4774 24.0080 24.7519 -26.7450 -9.6995 -24.6728 -0.4623 0.0000 2.9363 2.7954 12.6714 -12.5492 33.1476 -0.0000 26.2537 -14.2924 -6.0539 -36.4114 -23.8524 2.7385 32.5227 7.8631 -0.0000 25.0405 4.0524 -14.1224 16.1911 32.8623 0.0000 -24.3270 -1.7502 0.5107 -0.5307 0.9733 0.0000 0.0000 -10.6674 27.0057 -13.6615 8.7610 -0.0000 0.0000 0.9986 -5.3374 -5.4012 -4.1236 0.0000 -0.0000 -12.9126 -16.3472 2.3606 4.1234 0.0000 0.0000
 -1.9968 31.8353 -6.5697 5.9225 5.0510 3.0507 -5.7018 -6.2638 -1.8564 1.9850 9.7131 -1.3114 6.5999 24.0778 24.6852 -26.8164 -9.7515 -24.6326 -0.4351 0.0000 2.8887 2.8122 12.6565 -12.6364 33.1476 -0.0000 26.2537 -14.3134 -6.0266 -36.4116 -23.7840 2.7451 32.5221 7.8492 -0.0000 25.0247 4.0694 -14.2144 16.1579 32.8623 0.0000 -24.3270 -1.7213 0.4982 -0.4932 0.9691 -0.0000 0.0000 -10.6653 26.9985 -13.6670 8.7530 0.0000 0.0000 1.0260 -5.3386 -5.3660 -4.1123 0.0000 -0.0000 -12.9154 -16.3402 2.3385 4.1198 0.0000 -0.0000
